<svg width="430" height="80" viewBox="0 0 430 80" fill="none" xmlns="http://www.w3.org/2000/svg">
<path d="M429.5 40C429.5 42.5213 427.806 45.0875 424.319 47.659C420.846 50.2209 415.692 52.713 409.007 55.0989C395.642 59.8685 376.275 64.1724 352.309 67.7899C304.385 75.0237 238.161 79.5 165 79.5C91.8392 79.5 25.6154 75.0237 -22.3087 67.7899C-46.2746 64.1724 -65.6419 59.8685 -79.0069 55.0989C-85.6925 52.713 -90.8463 50.2209 -94.3193 47.659C-97.8055 45.0875 -99.5 42.5213 -99.5 40C-99.5 37.4787 -97.8055 34.9125 -94.3193 32.341C-90.8463 29.7791 -85.6925 27.287 -79.0069 24.9011C-65.6419 20.1315 -46.2746 15.8276 -22.3087 12.2101C25.6154 4.97631 91.8392 0.5 165 0.5C238.161 0.5 304.385 4.97631 352.309 12.2101C376.275 15.8276 395.642 20.1315 409.007 24.9011C415.692 27.287 420.846 29.7791 424.319 32.341C427.806 34.9125 429.5 37.4787 429.5 40Z" stroke="white"/>
</svg>
